<svg width="12" height="8" viewBox="0 0 12 8" fill="none" xmlns="http://www.w3.org/2000/svg">
<path fill-rule="evenodd" clip-rule="evenodd" d="M9.73333 3.33333L7.53333 1.13333C7.26667 0.866667 7.26667 0.466667 7.53333 0.2C7.8 -0.0666667 8.2 -0.0666667 8.46667 0.2L11.684 3.41728C11.8815 3.52593 12 3.73333 12 4C12 4.26667 11.8815 4.47407 11.684 4.58272L8.46667 7.8C8.33333 7.93333 8.2 8 8 8C7.8 8 7.66667 7.93333 7.53333 7.8C7.26667 7.53333 7.26667 7.13333 7.53333 6.86667L9.73333 4.66667H0.666667C0.266667 4.66667 0 4.4 0 4C0 3.6 0.266667 3.33333 0.666667 3.33333H9.73333Z" fill="#FF0142"/>
</svg>
